<svg xmlns="http://www.w3.org/2000/svg" width="64" height="64" enable-background="new 0 0 64 64" viewBox="0 0 64 64"><path d="M35.141,24.561c3.085,3.443,5.982,7.295,8.252,11.477c0.089,0.163,0.259,0.261,0.439,0.261
		c0.032,0,0.064-0.003,0.097-0.009l4.82-0.948c0.146-0.029,0.271-0.122,0.343-0.252s0.08-0.287,0.024-0.425
		c-0.053-0.132-3.021-7.279-9.664-14.462c1.349-1.619,1.503-3.792,0.271-5.03c-0.655-0.66-1.591-0.952-2.636-0.824
		c-0.907,0.112-1.793,0.545-2.534,1.206c-5.175-4.281-11.845-7.983-20.21-9.408c-0.243-0.044-0.472,0.096-0.554,0.322
		c-0.083,0.228,0.01,0.481,0.219,0.603c0.126,0.074,8.158,4.802,16.395,12.624c-0.024,0.017-0.052,0.027-0.073,0.048L2.927,47.091
		c-0.778,0.778-1.275,1.756-1.398,2.754c-0.129,1.044,0.162,1.981,0.819,2.638c0.569,0.571,1.342,0.849,2.168,0.849
		c1.094,0,2.281-0.486,3.22-1.42L35.141,24.561z M37.209,15.341c0.737-0.087,1.373,0.101,1.805,0.537
		c0.845,0.849,0.71,2.381-0.244,3.593c-1.059-1.102-2.212-2.196-3.447-3.263C35.889,15.734,36.544,15.422,37.209,15.341z
		 M16.842,7.677c20.21,4.832,29.522,23.343,31.102,26.804l-3.849,0.757C36.521,21.528,22.4,11.332,16.842,7.677z M3.055,51.777
		C2.62,51.342,2.431,50.7,2.521,49.968c0.097-0.778,0.492-1.548,1.113-2.169l27.402-27.348c0.027-0.027,0.041-0.061,0.061-0.092
		c1.132,1.098,2.263,2.255,3.374,3.465c-0.007,0.006-0.016,0.008-0.022,0.015L7.029,51.204C5.771,52.456,3.987,52.712,3.055,51.777z
		"/><path d="M62.171,4.271c-0.193-0.071-0.418-0.013-0.554,0.148L46.858,21.959c-0.108,0.129-0.145,0.304-0.096,0.466l3.966,13.171
		L26.646,52.427c-0.087,0.06-0.151,0.146-0.187,0.246l-1.461,4.213L7.948,58.763c-0.264,0.029-0.459,0.259-0.444,0.524
		s0.233,0.473,0.499,0.473H62c0.276,0,0.5-0.224,0.5-0.5V4.74C62.5,4.53,62.369,4.342,62.171,4.271z M61.5,58.76H17.116l8.307-0.914
		c0.001,0,0.001,0,0.001,0c0.003,0,0.005,0,0.007,0L40.137,56c0.093-0.012,0.181-0.049,0.253-0.108l8.344-6.793l3.926,1.689
		c0.251,0.106,0.547-0.008,0.656-0.262c0.109-0.254-0.008-0.548-0.262-0.657L48.85,48.06c-0.172-0.073-0.368-0.045-0.513,0.072
		l-8.467,6.894l-13.766,1.727l1.247-3.599l24.164-16.888l6.109-1.344c0.188-0.042,0.337-0.188,0.38-0.376l1.943-8.45
		c0.062-0.27-0.106-0.538-0.375-0.6c-0.271-0.061-0.537,0.107-0.6,0.375l-1.872,8.142l-5.445,1.198l-3.858-12.815L61.5,6.111V58.76z
		"/><path d="M36.63 39.47v-5.037c0-.168-.085-.326-.226-.418-.141-.092-.319-.107-.474-.041l-4.675 2.033c-.248.108-.365.393-.265.644l1.199 3.003c.075.19.26.314.464.314h3.476C36.406 39.97 36.63 39.746 36.63 39.47zM35.63 38.97h-2.637L32.1 36.731l3.53-1.536V38.97zM29.434 39.2c-.116-.183-.34-.271-.551-.213l-6.426 1.731c-.136.037-.25.129-.314.254s-.073.271-.024.403l2.781 7.469c.052.14.164.249.305.298.053.019.108.028.164.028.09 0 .18-.024.259-.072l7.467-4.519c.148-.09.24-.25.241-.424s-.088-.335-.235-.428l-1.284-.802L29.434 39.2zM25.626 47.93l-2.379-6.389 5.542-1.493 2.245 3.511c.04.063.093.115.156.155l.689.431L25.626 47.93zM43.247 20.597h2.955c.276 0 .5-.224.5-.5v-4.59c0-.185-.103-.355-.266-.442-.165-.086-.361-.075-.516.028l-2.955 2.009c-.137.093-.219.248-.219.414v2.582C42.747 20.373 42.971 20.597 43.247 20.597zM43.747 17.78l1.955-1.329v3.146h-1.955V17.78z"/></svg>