<svg xmlns="http://www.w3.org/2000/svg" enable-background="new 0 0 98 98" viewBox="0 0 98 98"><path d="M69.4294,58.4277h5.934v-1.9754h-7.382l-3.0321-4.1364c0.2548,0.0808,0.5057,0.177,0.7494,0.3l1.1507,0.5821l0.2624-1.2635
		c0.7147-3.4516,3.7897-5.957,7.3122-5.957c4.5557,0,7.8688,4.0092,7.4231,8.1653l-0.2209,2.0588l1.7391-1.1242
		c1.9533-1.2646,4.5052-0.6257,5.6379,1.375H78.3737v1.9754h14.0717v-1.9754h-1.2637c-1.0673-3.0512-4.3261-4.6483-7.3448-3.7458
		c-0.3666-4.8342-4.4568-8.7045-9.413-8.7045c-4.0617,0-7.6527,2.6337-8.9394,6.4065c-0.6934-0.211-1.4201-0.3091-2.1526-0.2989
		l-7.1002-9.6861c-1.7072-2.3294-4.3433-3.6653-7.2321-3.6653c-2.8878,0-5.5239,1.3359-7.2312,3.6653L1,96.0391h96L69.4294,58.4277z
		 M48.3996,82.6532l-10.7643-6.5714l4.6231-11.1337l-7.4547-11.6818l4.5263-6.1746v2.9253c0,1.7241,1.4024,3.127,3.127,3.127
		c1.7246,0,3.127-1.4029,3.127-3.127v-0.9914c0.3644,0.1446,0.756,0.2237,1.1613,0.2237c0.4075,0,0.7944-0.0837,1.1517-0.2261
		v0.9938c0,1.7241,1.4024,3.127,3.127,3.127s3.127-1.4029,3.127-3.127v-1.0614c0.3572,0.1424,0.7442,0.2261,1.1517,0.2261
		c1.5117,0,2.7768-1.0721,3.0715-2.4933l7.9768,10.8815l-5.971,14.0081l10.4827,7.6966l-4.6361,14.7893H49.8686L48.3996,82.6532z
		 M73.17,78.5182l-10.3592-7.6059l4.8981-11.4902l25.3943,34.6417H68.2968L73.17,78.5182z M48.9995,38.7337
		c4.7977,0,6.3304,4.1848,7.4646,5.3486v1.9723c0,0.6352-0.5209,1.1517-1.1613,1.1517c-0.6347,0-1.1517-0.5165-1.1517-1.1517
		h-1.9754v3.9623c0,0.6352-0.517,1.1517-1.1517,1.1517s-1.1517-0.5165-1.1517-1.1517v-3.8953H47.897
		c0,0.6352-0.517,1.1521-1.1517,1.1521c-0.3115,0-0.6019-0.1186-0.8179-0.3342c-0.1563-0.1567-0.3434-0.4258-0.3434-0.8179h-1.9754
		v3.8953c0,0.6352-0.517,1.1517-1.1517,1.1517c-0.6347,0-1.1517-0.5165-1.1517-1.1517v-5.62
		C42.6275,43.0212,44.1339,38.7337,48.9995,38.7337z M8.041,89.7744h8.9212V87.799H9.4891l2.5398-3.4646H30.706V82.359H13.477
		l2.5327-3.455h5.1059v-1.9754h-3.6578l2.5394-3.4642h8.9273v-1.9754h-7.4792l2.5327-3.455h3.928v-1.9754H25.426l2.5394-3.4642
		h5.1587v-1.9754h-3.7106l4.1375-5.644l3.6012,5.644h-2.1183v1.9754h3.3787l1.6254,2.5474l-0.3806,0.9168h-9.9062v1.9754h9.0861
		l-1.4343,3.455h-5.742v1.9754h4.9219l-1.4206,3.4217l0.0695,0.0424H23.8973v1.9754h14.57l5.6592,3.455h-9.7302v1.9754h12.2278
		L47.07,87.799H19.9523v1.9754h27.3719l0.552,4.2893H4.8968L8.041,89.7744z"/><rect width="2.932" height="1.975" x="68.933" y="23.918"/><path d="M74.8753,25.8932h18.9272v-1.9754h-1.2617c-1.0622-3.0409-4.3165-4.6478-7.343-3.7468
		c-0.3565-4.7953-4.4289-8.7045-9.4149-8.7045c-4.0656,0-7.6594,2.6332-8.9452,6.4065c-1.9272-0.5884-4.025-0.3217-5.7998,0.775
		c-1.8897,1.1678-3.0947,3.0992-3.3372,5.2698h-1.7131v1.9754h10.3341v-1.9754h-6.6274c0.5379-3.4497,4.2915-5.3729,7.3624-3.8374
		l1.1488,0.5744l0.2604-1.2578c0.7128-3.4507,3.7906-5.9551,7.317-5.9551c4.57,0,7.8804,4.0373,7.4212,8.162l-0.2296,2.0665
		l1.7468-1.1276c1.9612-1.2659,4.5107-0.6216,5.6414,1.375H74.8753V25.8932z"/><rect width="2.932" height="1.975" x="15.154" y="14.412"/><path d="M40.0235,14.4122h-1.2617c-1.06-3.0344-4.3107-4.65-7.343-3.7463c-0.1505-2.0241-0.9809-3.985-2.3853-5.5534
		c-1.7921-2.0029-4.3549-3.1516-7.0296-3.1516c-4.0655,0-7.6594,2.6337-8.9452,6.4065c-4.1555-1.2666-8.6351,1.5515-9.137,6.0448
		H2.2086v1.9754h10.3331v-1.9754H5.9153c0.2305-1.4784,1.0805-2.7849,2.3824-3.5895c3.048-1.8822,5.6641,0.1981,6.1287,0.327
		l0.2604-1.2578c0.7128-3.4511,3.7907-5.9556,7.317-5.9556c2.1451,0,4.1186,0.8855,5.5577,2.4938
		c1.4102,1.5746,2.0892,3.6407,1.8635,5.6686l-0.2296,2.0665l1.7468-1.1276c1.9518-1.2607,4.505-0.6321,5.6414,1.3745H21.0963
		v1.9754h18.9272V14.4122z"/><polygon points="19.538 44.516 21.436 46.417 23.337 44.516 24.537 45.717 25.935 44.322 23.339 41.72 21.438 43.622 19.54 41.72 16.939 44.321 18.336 45.718"/><polygon points="29.043 32.385 26.061 35.367 27.457 36.764 29.041 35.18 31.319 37.463 33.602 35.18 35.183 36.764 36.582 35.368 33.604 32.385 31.321 34.668"/><polygon points="46.903 12.502 44.302 15.103 45.699 16.5 46.901 15.297 48.799 17.199 50.7 15.298 51.899 16.499 53.297 15.104 50.702 12.502 48.801 14.404"/><polygon points="58.683 8.245 60.966 5.961 62.547 7.545 63.945 6.149 60.968 3.166 58.684 5.45 56.406 3.166 53.424 6.149 54.821 7.546 56.404 5.961"/><polygon points="8.961 32.619 10.358 34.016 12.409 31.965 15.153 34.715 17.903 31.965 19.948 34.015 21.347 32.619 17.905 29.17 15.155 31.92 12.411 29.17"/></svg>