<svg xmlns="http://www.w3.org/2000/svg" enable-background="new 0 0 500 500" viewBox="0 0 500 500"><path d="M118.7,378.8c29.7,0,53.9-24.2,53.9-53.9c0-29.7-24.2-53.9-53.9-53.9c-29.7,0-53.9,24.2-53.9,53.9
		C64.8,354.7,89,378.8,118.7,378.8z M118.7,283.7c22.7,0,41.3,18.5,41.3,41.3c0,22.7-18.5,41.3-41.3,41.3
		c-22.8,0-41.3-18.5-41.3-41.3C77.4,302.2,96,283.7,118.7,283.7z"/><path d="M118.7 351.6c14.7 0 26.6-12 26.6-26.6s-12-26.6-26.6-26.6-26.6 12-26.6 26.6S104 351.6 118.7 351.6zM118.7 310.9c7.7 0 14 6.3 14 14s-6.3 14-14 14c-7.7 0-14-6.3-14-14S111 310.9 118.7 310.9zM305.3 378.8c29.7 0 53.9-24.2 53.9-53.9 0-29.7-24.2-53.9-53.9-53.9s-53.9 24.2-53.9 53.9C251.4 354.7 275.6 378.8 305.3 378.8zM305.3 283.7c22.8 0 41.3 18.5 41.3 41.3 0 22.7-18.5 41.3-41.3 41.3-22.7 0-41.3-18.5-41.3-41.3C264 302.2 282.5 283.7 305.3 283.7z"/><path d="M305.3 351.6c14.7 0 26.6-12 26.6-26.6s-12-26.6-26.6-26.6c-14.7 0-26.6 12-26.6 26.6S290.6 351.6 305.3 351.6zM305.3 310.9c7.7 0 14 6.3 14 14s-6.3 14-14 14c-7.7 0-14-6.3-14-14S297.5 310.9 305.3 310.9zM426.2 224c-9.3-3.7-20.1.8-29.6-1.3-7.4-1.6-7.9-11.8-9.8-18.2-3.4-11.2-6.7-22.4-10.1-33.7-3-10-6.2-19.6-18.6-20.4-9.6-.5-19.5 0-29.2 0h-8.9l34.5-14.3c3.5-1.2 5.6-4.6 5.2-8.3-.5-3.9-3.7-6.8-7.7-6.8h-.5l-65.9 9.3c-5.6.1-10.9 3-14.1 7.6L231 195.7l-.3.4c-.2.4-.7.7-1.1.7H77.3c-7.7 0-13.9 6.2-13.9 13.9v43.8c0 7.7 6.2 13.9 13.9 13.9h200.4c7.7 0 13.9-6.2 13.9-13.9V236H329c22.1-.2 44.2-.4 66.2-.6.5 0 1-.1 1.5-.2 1.6.1 3.2.2 4.9.2 6.9 0 20.1-3.1 22.4 5.4.8 3 0 7.3 0 10.3v17c0 5.4 3 19.7-4.1 22.3-2.1.8-6 0-8.2 0h-37.9c-7.4-20.7-25.7-36.3-48.2-37.2-8.1-.3-8.1 12.3 0 12.6 18.6.7 32.8 15.1 37.5 32.6.7 2.7 3.3 4.6 6.1 4.6 16.8 0 34 1.1 50.7 0 12.6-.8 16.7-10.5 16.7-21.5v-33.3C436.7 238.6 436.8 228.2 426.2 224zM279 165.6v89c0 .7-.6 1.3-1.4 1.3H77.3c-.7 0-1.3-.6-1.3-1.3v-43.8c0-.7.6-1.4 1.3-1.4h152.3c4.8 0 9.3-2.5 11.8-6.6l40.4-57.5c1-1.4 2.6-2.2 4.3-2.2l28.7-4-23.3 9.6C284.2 150.9 279 157.7 279 165.6zM322.7 223.4h-31.1v-57.8c0-.9.2-1.7.6-2.4h30.5V223.4zM335.3 223.3v-60.1H354c8 0 8.6 4.4 10.6 11.1 4.8 16.1 8.8 32.8 14.5 48.6C364.5 223 349.9 223.2 335.3 223.3z"/><path d="M183.6,321c18.1,0,36.2,0,54.3,0c3.4,0,6.3-2.9,6.3-6.3c0.1-11.4,5.7-22.6,13.8-30.5c3.9-3.8,1-10.8-4.5-10.8
		c-29.1,0-58.2,0-87.3,0c-0.1,0-0.2,0-0.3,0c-0.2,0-0.3,0-0.5,0c-2.7,0.3-4.4,2.1-5,4.2c-0.9,2.3-0.6,5,1.8,6.8
		c0.4,0.3,0.8,0.6,1.2,0.8c10.1,6,14.4,17.9,13.8,29.3C177.2,318.1,180.4,321,183.6,321z M182.1,286c19.5,0,38.9,0,58.4,0
		c-4.3,6.8-7.3,14.5-8.4,22.4c-14.1,0-28.2,0-42.3,0C189.2,300.4,186.6,292.6,182.1,286z"/></svg>